<?xml version="1.0" encoding="UTF-8" standalone="no"?>
<!-- Created with Inkscape (http://www.inkscape.org/) -->

<svg
   width="15mm"
   height="15mm"
   viewBox="0 0 15 15"
   version="1.1"
   id="proof-complexity-svg"
   xml:space="preserve"
   inkscape:version="1.3.1 (1:1.3.1+202311172155+91b66b0783)"
   sodipodi:docname="proof-complexity.svg"
   xmlns:inkscape="http://www.inkscape.org/namespaces/inkscape"
   xmlns:sodipodi="http://sodipodi.sourceforge.net/DTD/sodipodi-0.dtd"
   xmlns="http://www.w3.org/2000/svg"
   xmlns:svg="http://www.w3.org/2000/svg"><sodipodi:namedview
     id="namedview1"
     pagecolor="#ffffff"
     bordercolor="#666666"
     borderopacity="1.0"
     inkscape:showpageshadow="2"
     inkscape:pageopacity="0.0"
     inkscape:pagecheckerboard="0"
     inkscape:deskcolor="#d1d1d1"
     inkscape:document-units="mm"
     inkscape:zoom="11.630976"
     inkscape:cx="12.509698"
     inkscape:cy="29.490215"
     inkscape:window-width="1848"
     inkscape:window-height="1016"
     inkscape:window-x="72"
     inkscape:window-y="27"
     inkscape:window-maximized="1"
     inkscape:current-layer="layer1" /><defs
     id="defs1"><inkscape:path-effect
       effect="bspline"
       id="path-effect4"
       is_visible="true"
       lpeversion="1.3"
       weight="33.333333"
       steps="2"
       helper_size="0"
       apply_no_weight="true"
       apply_with_weight="true"
       only_selected="false"
       uniform="false" /><inkscape:path-effect
       effect="bspline"
       id="path-effect3"
       is_visible="true"
       lpeversion="1.3"
       weight="33.333333"
       steps="2"
       helper_size="0"
       apply_no_weight="true"
       apply_with_weight="true"
       only_selected="false"
       uniform="false" /><inkscape:path-effect
       effect="bspline"
       id="path-effect2"
       is_visible="true"
       lpeversion="1.3"
       weight="33.333333"
       steps="2"
       helper_size="0"
       apply_no_weight="true"
       apply_with_weight="true"
       only_selected="false"
       uniform="false" /></defs><g
     inkscape:label="Layer 1"
     inkscape:groupmode="layer"
     id="layer1"><path
       style="fill:#000000;fill-opacity:1;stroke:#000000;stroke-width:0.264583px;stroke-linecap:butt;stroke-linejoin:miter;stroke-opacity:1"
       d="M 9.0894995,5.6248385 C 10.360818,5.2504302 11.32748,5.4366501 11.833857,5.590458 c 0.506377,0.153808 0.552467,0.2751995 0.598251,0.564318 0.04579,0.2891184 0.09126,0.7459419 0.09027,1.1232486 -9.91e-4,0.3773068 -0.04845,0.6750736 -0.202254,1.1799035 -0.153808,0.5048299 -0.413956,1.2166871 -0.942244,1.7148159 -0.528287,0.498129 -1.324677,0.782505 -1.8897232,1.092694 -0.565046,0.310188 -0.8987181,0.646169 -1.2582954,0.801579 C 7.8702841,12.222428 7.484824,12.197262 7.1535213,12.001998 6.8222186,11.806735 6.5450921,11.44139 6.0525266,11.216277 5.559961,10.991164 4.8519905,10.906294 3.9331434,10.953053 c -0.9188471,0.04676 -2.0485115,0.225141 -2.6986029,0.233998 -0.65009135,0.0089 -0.82058047,-0.151809 -0.82029606,-0.266722 2.8441e-4,-0.114914 0.1713386,-0.18407 0.24568583,-0.277743 0.0743472,-0.09367 0.0519855,-0.211854 0.31752191,-0.369455 C 1.2429886,10.11553 1.7964013,9.9185205 2.459189,9.5113096 3.1219766,9.1040988 3.8940972,8.4867156 5.0681679,7.7104902 6.2422386,6.9342648 7.818181,5.9992468 9.0894995,5.6248385 Z"
       id="path2"
       inkscape:path-effect="#path-effect2"
       inkscape:original-d="m 9.394155,5.0642101 c 0.966663,0.1862201 1.933325,0.3724402 2.899988,0.5586601 0.04609,0.1213963 0.09218,0.2427877 0.138272,0.3641817 0.04548,0.4568423 0.09095,0.9136663 0.13643,1.3704996 -0.04746,0.2977795 -0.09491,0.5955472 -0.14237,0.8933209 -0.260159,0.7118855 -0.520307,1.4237427 -0.78046,2.1356136 -0.796422,0.284388 -1.592812,0.568764 -2.3892182,0.853145 -0.3336859,0.335995 -0.667358,0.671976 -1.0010373,1.007964 C 7.8702841,12.222428 7.484824,12.197262 7.0993563,12.172095 6.8222187,11.806735 6.545092,11.44139 6.2679598,11.076037 5.559961,10.991164 4.8519905,10.906294 4.1440057,10.821423 3.0142963,10.999812 1.8846319,11.178194 0.7549449,11.35658 0.5844492,11.195908 0.41396036,11.035242 0.24346809,10.874574 0.41452887,10.805415 0.58558281,10.736258 0.75664017,10.667101 0.73427756,10.548914 0.71191582,10.430732 0.68955364,10.312548 1.2429885,10.11553 1.7964013,9.9185205 2.3498251,9.7215067 3.1219767,9.1040989 3.8940972,8.4867156 4.6662334,7.86932 6.2422386,6.9342647 7.818181,5.9992468 9.394155,5.0642101 Z"
       transform="translate(0.28689981,-0.55489187)" /><path
       style="fill:#000000;fill-opacity:1;stroke:#000000;stroke-width:0.264583px;stroke-linecap:butt;stroke-linejoin:miter;stroke-opacity:1"
       d="m 9.3793907,4.9804163 c 0.4031813,0.00123 1.1596903,-0.045771 1.7326173,0.00632 0.572927,0.052092 0.962256,0.2032724 1.127908,0.044288 C 12.405569,4.8720415 12.347537,4.4029072 12.557691,4.1063344 12.767845,3.8097617 13.246165,3.6857647 13.472396,3.5948079 13.698627,3.5038511 13.672762,3.445942 13.52557,3.3575114 13.378378,3.2690808 13.109871,3.1501374 12.896693,2.8817705 12.683516,2.6134037 12.525678,2.1956321 12.162795,2.0573444 11.799912,1.9190567 11.232009,2.0602557 10.845168,2.3778532 10.458326,2.6954507 10.252566,3.1894241 10.024272,3.6358952 9.7959784,4.0823663 9.5451659,4.481309 9.3501148,4.6807843 9.1550637,4.8802596 9.0157844,4.8802596 8.9710707,4.9049917 c -0.044714,0.024732 0.00514,0.074194 0.40832,0.075425 z"
       id="path3"
       inkscape:path-effect="#path-effect3"
       inkscape:original-d="M 9.0260635,5.0286488 C 9.782572,4.9816472 10.539081,4.9346455 11.29559,4.8876439 c 0.389345,0.1511863 0.778674,0.3023666 1.168012,0.4535498 -0.05803,-0.4691526 -0.116064,-0.9382866 -0.174097,-1.4074299 0.47834,-0.124002 0.95666,-0.2479992 1.43499,-0.3719986 -0.02587,-0.057913 -0.05173,-0.1158245 -0.0776,-0.1737365 C 13.378378,3.2690808 13.109871,3.1501373 12.841359,3.0311918 12.683516,2.6134035 12.525679,2.1956319 12.367838,1.777852 11.799912,1.9190566 11.232009,2.0602556 10.664095,2.2014574 10.458326,2.6954506 10.252566,3.1894242 10.046801,3.6834077 9.7959785,4.0823663 9.5451659,4.481309 9.2943483,4.8802596 c -0.1392846,0 -0.2785639,0 -0.4178461,0 0.049855,0.049464 0.099707,0.098926 0.1495613,0.1483892 z"
       transform="rotate(-2.4302307,-0.09170085,-3.4563186)" /><path
       style="fill:#000000;fill-opacity:1;stroke:#000000;stroke-width:0.264583px;stroke-linecap:butt;stroke-linejoin:miter;stroke-opacity:1"
       d="m 8.2291741,12.352489 c -0.1292784,0.0066 -0.3878347,0.01993 -0.4868232,0.141879 -0.098988,0.121948 -0.038411,0.352548 -0.1198828,0.485502 -0.081471,0.132953 -0.3049841,0.168254 -0.4456901,0.249049 -0.140706,0.08079 -0.1985979,0.207076 -0.046838,0.241503 0.1517601,0.03443 0.5131598,-0.023 0.9635796,-0.01807 0.4504199,0.0049 0.9898304,0.07223 1.2860601,0.02205 C 9.6758096,13.424235 9.728845,13.256602 9.5271765,13.130194 9.325508,13.003787 8.8691535,12.918612 8.6319149,12.794756 8.3946764,12.670901 8.3765645,12.508375 8.3675084,12.42711 c -0.00906,-0.08127 -0.00906,-0.08126 -0.1383343,-0.07462 z"
       id="path4"
       inkscape:path-effect="#path-effect4"
       inkscape:original-d="m 8.3584525,12.345846 c -0.2585566,0.01329 -0.5171133,0.02657 -0.7756699,0.03986 0.06058,0.23061 0.1211569,0.46121 0.1817354,0.691815 -0.2235216,0.0353 -0.4470345,0.0706 -0.6705516,0.105905 -0.057895,0.126287 -0.1157864,0.252569 -0.1736796,0.378854 0.3614137,-0.05743 0.7228131,-0.114861 1.0842199,-0.172291 0.5394325,0.0673 1.0788435,0.13459 1.6182655,0.201885 0.053038,-0.167639 0.106073,-0.335272 0.1591095,-0.502909 -0.4563734,-0.08518 -0.9127283,-0.170353 -1.3690925,-0.25553 -0.018113,-0.162534 -0.036224,-0.32506 -0.054337,-0.48759 z"
       transform="translate(0.28689981,-0.4701583)" /></g></svg>
